<?xml version="1.0" encoding="UTF-8"?> <svg xmlns="http://www.w3.org/2000/svg" width="36" height="36" viewBox="0 0 36 36" fill="none"><g clip-path="url(#clip0_2932_2200)"><path d="M16.4183 33.9406C17.2981 34.4245 18.0605 34.4245 18.9403 33.9406L23.0018 31.6239C23.7056 31.2134 23.8816 30.5096 23.5443 29.8791C23.2218 29.2633 22.43 29.102 21.7408 29.4979L18.8964 31.1254V28.1489C18.8964 27.3571 18.3831 26.7706 17.6793 26.7706C16.9609 26.7706 16.4477 27.3571 16.4477 28.1489V31.1254L13.6032 29.4979C12.9287 29.102 12.1369 29.2633 11.7997 29.8791C11.4624 30.5096 11.6384 31.2134 12.3568 31.6239L16.4183 33.9406ZM6.79975 28.4715C7.50355 28.8674 8.28066 28.7207 8.6179 28.0903C8.94048 27.4744 8.69122 26.7119 8.04606 26.3453L6.46251 25.4656L8.72054 24.1607C9.439 23.7647 9.70293 22.973 9.3217 22.3865C8.92582 21.7853 8.20735 21.6094 7.53288 21.976L5.17221 23.3103V21.4041C5.17221 20.6123 4.65902 20.0259 3.98454 20.0259C3.28074 20.0259 2.79688 20.6123 2.79688 21.4041V23.7062C2.79688 25.8761 3.51534 26.624 4.89362 27.4011L6.79975 28.4715ZM3.98454 16.8587C4.68834 16.8587 5.17221 16.2723 5.17221 15.4805V12.6946L7.88478 14.2488C8.52992 14.6153 9.26305 14.454 9.6736 13.8529C10.0548 13.2664 9.77623 12.4746 9.04312 12.0787L6.50649 10.6272L8.98446 9.21955C9.73226 8.79433 9.96686 7.98789 9.58563 7.38672C9.18975 6.80022 8.45662 6.68292 7.84079 7.03482L4.64435 8.85298C3.44203 9.54212 2.79688 10.4659 2.79688 12.0934V15.4805C2.79688 16.2723 3.31006 16.8587 3.98454 16.8587ZM17.6793 9.04359C18.3831 9.04359 18.8964 8.47175 18.8964 7.67998V4.95274L20.9637 6.14041C21.6236 6.52164 22.4446 6.37501 22.7672 5.75918C23.1045 5.14335 22.9138 4.4249 22.21 4.01434L19.0284 2.21085C18.0606 1.65367 17.2834 1.65367 16.3157 2.21085L13.134 4.01434C12.4302 4.4249 12.2542 5.14335 12.5768 5.75918C12.8994 6.37501 13.7205 6.52164 14.3803 6.14041L16.4477 4.95274V7.67998C16.4477 8.47175 16.9609 9.04359 17.6793 9.04359ZM31.3595 16.8587C32.0486 16.8587 32.5471 16.2723 32.5471 15.4805V12.0934C32.5471 10.3192 32.0779 9.63009 30.7143 8.85298L27.5033 7.03482C26.8874 6.68292 26.1543 6.80022 25.7731 7.38672C25.3772 7.98789 25.6264 8.79433 26.3743 9.21955L28.8522 10.6272L26.301 12.0787C25.5824 12.4746 25.2892 13.2664 25.6851 13.8529C26.081 14.454 26.8287 14.6153 27.4592 14.2488L30.1718 12.6946V15.4805C30.1718 16.2723 30.6703 16.8587 31.3595 16.8587ZM28.5443 28.4715L30.4505 27.4011C31.8287 26.624 32.5471 25.8761 32.5471 23.7062V21.4041C32.5471 20.6123 32.0633 20.0259 31.3595 20.0259C30.6851 20.0259 30.1718 20.6123 30.1718 21.4041V23.3249L27.8112 21.976C27.1513 21.6094 26.4182 21.7853 26.037 22.3865C25.6411 22.973 25.9197 23.7647 26.6235 24.1607L28.8668 25.4656L27.2979 26.3453C26.6675 26.7119 26.4036 27.4744 26.7408 28.0903C27.0633 28.7207 27.8551 28.8674 28.5443 28.4715ZM17.6793 23.7501C18.3831 23.7501 18.8964 23.1636 18.8964 22.3719V19.1314L21.9168 17.4012C22.6207 17.0053 22.8846 16.2136 22.4887 15.627C22.1074 15.0259 21.389 14.8499 20.7291 15.2165L17.6793 16.9467L14.6295 15.2165C13.9697 14.8499 13.2513 15.0259 12.8554 15.627C12.4595 16.2136 12.7234 17.0053 13.4419 17.4012L16.4477 19.1314V22.3719C16.4477 23.1636 16.9609 23.7501 17.6793 23.7501Z" fill="#EA4017"></path></g><defs><clipPath id="clip0_2932_2200"><rect width="29.7502" height="32.6095" fill="white" transform="translate(2.79688 1.79297)"></rect></clipPath></defs></svg> 