<?xml version="1.0" encoding="UTF-8"?> <svg xmlns="http://www.w3.org/2000/svg" width="47" height="37" viewBox="0 0 47 37" fill="none"><g clip-path="url(#clip0_2932_2231)"><path d="M5.76338 29.671C6.23211 29.1436 6.08563 28.4552 5.55832 27.8547C3.59552 25.6722 2.49695 22.8012 2.49695 19.652C2.49695 16.5027 3.59552 13.6317 5.55832 11.4492C6.08563 10.8487 6.23211 10.1602 5.76338 9.63292C5.29466 9.07631 4.47439 9.09096 3.91778 9.70615C1.48625 12.3427 0.109375 15.8582 0.109375 19.652C0.109375 23.4457 1.48625 26.9465 3.91778 29.5977C4.47439 30.2129 5.29466 30.2129 5.76338 29.671ZM41.2986 29.671C41.7673 30.2129 42.5877 30.2129 43.1589 29.5977C45.5904 26.9465 46.9527 23.4457 46.9527 19.652C46.9527 15.8582 45.5904 12.3427 43.1589 9.70615C42.5877 9.09096 41.7673 9.07631 41.2986 9.63292C40.8299 10.1602 40.9764 10.8487 41.5037 11.4492C43.4665 13.6317 44.5651 16.5027 44.5651 19.652C44.5651 22.8012 43.4665 25.6722 41.5037 27.8547C40.9764 28.4552 40.8299 29.1436 41.2986 29.671Z" fill="#EA4017"></path><path d="M9.86601 25.4976C10.3347 24.9704 10.1443 24.3111 9.67558 23.6813C8.79673 22.5827 8.37195 21.1765 8.37195 19.6533C8.37195 18.1298 8.79673 16.709 9.67558 15.6251C10.1443 14.9952 10.3347 14.3361 9.86601 13.8088C9.38264 13.2522 8.50377 13.2522 7.99111 13.9113C6.71676 15.4933 5.98438 17.5 5.98438 19.6533C5.98438 21.8064 6.71676 23.8132 7.99111 25.3951C8.50377 26.0542 9.38264 26.0395 9.86601 25.4976ZM37.1986 25.4976C37.682 26.0395 38.5608 26.0542 39.0735 25.3951C40.3478 23.8132 41.0949 21.8064 41.0949 19.6533C41.0949 17.5 40.3478 15.4933 39.0735 13.9113C38.5608 13.2522 37.682 13.2522 37.1986 13.8088C36.7299 14.3361 36.9349 14.9952 37.389 15.6251C38.2678 16.709 38.7073 18.1298 38.7073 19.6533C38.7073 21.1765 38.2678 22.5827 37.389 23.6813C36.9349 24.3111 36.7299 24.9704 37.1986 25.4976Z" fill="#EA4017"></path><path d="M14.125 31.356C14.125 33.6411 15.7217 35.1644 18.1092 35.1644H28.9631C31.3507 35.1644 32.9473 33.6411 32.9473 31.356V7.94903C32.9473 5.66398 31.3507 4.14062 28.9631 4.14062H18.1092C15.7217 4.14062 14.125 5.66398 14.125 7.94903V31.356ZM16.4834 30.1989V9.10619H30.589V30.1989H16.4834ZM23.5581 33.7143C22.855 33.7143 22.2838 33.143 22.2838 32.4399C22.2838 31.7514 22.855 31.1802 23.5581 31.1802C24.2466 31.1802 24.8178 31.7514 24.8178 32.4399C24.8178 33.143 24.2466 33.7143 23.5581 33.7143ZM20.7604 6.70397C20.7604 6.36707 20.9948 6.14736 21.3171 6.14736H25.7699C26.1069 6.14736 26.3266 6.36707 26.3266 6.70397C26.3266 7.04086 26.1069 7.24594 25.7699 7.24594H21.3171C20.9948 7.24594 20.7604 7.04086 20.7604 6.70397Z" fill="#EA4017"></path></g><defs><clipPath id="clip0_2932_2231"><rect width="46.8433" height="31.0384" fill="white" transform="translate(0.109375 4.13965)"></rect></clipPath></defs></svg> 