<?xml version="1.0" encoding="UTF-8"?> <svg xmlns="http://www.w3.org/2000/svg" width="36" height="36" viewBox="0 0 36 36" fill="none"><g clip-path="url(#clip0_2932_2192)"><path d="M14.0435 18.8411L22.4219 19.72C26.8163 20.174 29.0427 21.8585 29.0427 24.3486C29.0427 26.7948 26.9774 28.3474 23.6816 28.3474H14.2193V30.7057H23.6816C28.4129 30.7057 31.401 28.2449 31.401 24.3486C31.401 20.3645 28.4569 17.7571 22.7735 17.1859L14.4243 16.3071C10.0154 15.853 7.80359 14.1685 7.80359 11.6784C7.80359 9.23221 9.86891 7.67957 13.1646 7.67957H22.6124V5.32129H13.1646C8.43343 5.32129 5.44531 7.7821 5.44531 11.6784C5.44531 15.6626 8.37485 18.2698 14.0435 18.8411Z" fill="#EA4017"></path><path d="M10.1775 34.2356C12.7848 34.2356 14.894 32.1117 14.894 29.5044C14.894 26.9118 12.7848 24.7878 10.1775 24.7878C7.57021 24.7878 5.46094 26.9118 5.46094 29.5044C5.46094 32.1117 7.57021 34.2356 10.1775 34.2356ZM10.1775 31.9359C8.8299 31.9359 7.76062 30.8666 7.76062 29.5044C7.76062 28.1421 8.8299 27.0876 10.1775 27.0876C11.5397 27.0876 12.5944 28.1421 12.5944 29.5044C12.5944 30.8666 11.5544 31.9359 10.1775 31.9359ZM26.6708 11.2388C29.2927 11.2388 31.4019 9.11486 31.4019 6.50757C31.4019 3.91493 29.2927 1.79102 26.6708 1.79102C24.0781 1.79102 21.9542 3.91493 21.9542 6.50757C21.9542 9.11486 24.0781 11.2388 26.6708 11.2388Z" fill="#EA4017"></path></g><defs><clipPath id="clip0_2932_2192"><rect width="25.9557" height="32.4446" fill="white" transform="translate(5.44922 1.79199)"></rect></clipPath></defs></svg> 