<?xml version="1.0" encoding="UTF-8"?> <svg xmlns="http://www.w3.org/2000/svg" width="49" height="36" viewBox="0 0 49 36" fill="none"><g clip-path="url(#clip0_2932_2214)"><path d="M11.6192 9.74817H12.819C13.5689 9.74817 13.8855 9.46489 14.1355 8.83163L15.1187 6.34863C15.3519 5.7987 15.1021 5.31543 14.5188 5.31543H13.4189C12.8523 5.31543 12.5024 5.59873 12.2357 6.09866L10.9193 8.63166C10.6526 9.13159 10.9193 9.74817 11.6192 9.74817ZM7.0531 19.0136H8.90285C9.66943 19.0136 10.1194 18.747 10.4027 18.0304L11.8525 14.4642C12.0858 13.881 11.7191 13.3144 11.0692 13.3144H9.41945C8.85287 13.3144 8.38625 13.5977 8.11962 14.1143L6.26987 17.7138C5.93659 18.347 6.33653 19.0136 7.0531 19.0136ZM1.97044 30.2621H4.15348C5.15334 30.2621 5.65329 29.7789 5.91992 29.0624L7.95298 24.0797C8.25294 23.3463 7.78634 22.6298 6.98645 22.6298H5.10336C4.0535 22.6298 3.5369 23.0298 3.17028 23.7297L0.803926 28.4123C0.370649 29.2623 0.687274 30.2621 1.97044 30.2621ZM36.4326 9.74817H37.6324C38.3323 9.74817 38.5989 9.13159 38.3323 8.63166L37.0158 6.09866C36.7658 5.59873 36.3992 5.31543 35.8327 5.31543H34.7327C34.1495 5.31543 33.8995 5.7987 34.1329 6.34863L35.1161 8.83163C35.3661 9.46489 35.6826 9.74817 36.4326 9.74817ZM40.3654 19.0136H42.1984C42.9151 19.0136 43.315 18.347 42.9983 17.7138L41.1486 14.1143C40.8652 13.5977 40.3987 13.3144 39.8321 13.3144H38.1823C37.5324 13.3144 37.1658 13.881 37.399 14.4642L38.8489 18.0304C39.1488 18.747 39.5821 19.0136 40.3654 19.0136ZM45.0981 30.2621H47.2812C48.5809 30.2621 48.881 29.2623 48.4477 28.4123L46.0813 23.7297C45.7147 23.0298 45.198 22.6298 44.1481 22.6298H42.2817C41.4652 22.6298 40.9986 23.3463 41.2985 24.0797L43.3316 29.0624C43.6149 29.7789 44.0982 30.2621 45.0981 30.2621Z" fill="#EA4017"></path><path d="M24.6489 28.8124C30.2315 28.8124 34.8642 24.1964 34.8642 18.6137C34.8642 13.0145 30.2149 8.39844 24.6323 8.39844C19.0663 8.39844 14.4336 13.0145 14.4336 18.6137C14.4336 24.1964 19.0663 28.8124 24.6489 28.8124ZM17.8998 14.1143C19.3329 11.898 21.7827 10.4648 24.6323 10.4648C27.4819 10.4648 29.9315 11.898 31.3647 14.0977C31.6979 14.5643 31.5813 14.9642 31.0647 14.9642H18.1997C17.6832 14.9642 17.5832 14.5643 17.8998 14.1143ZM24.6323 21.0801C23.499 21.0801 22.6659 20.2302 22.6659 19.1137C22.6659 17.9805 23.499 17.1306 24.6323 17.1306C25.7487 17.1306 26.5987 17.9805 26.5987 19.1137C26.5987 20.2302 25.7487 21.0801 24.6323 21.0801ZM16.8 20.7468C16.65 20.2802 16.8333 20.1302 17.2333 20.1803C19.9829 20.4802 22.0659 22.8298 21.966 25.6628C21.966 26.0794 21.7492 26.2627 21.3327 26.0462C19.0496 25.0462 17.4166 23.1132 16.8 20.7468ZM32.4978 20.7468C31.8646 23.1132 30.2149 25.0462 27.9318 26.0462C27.5152 26.2627 27.3152 26.0794 27.2986 25.6628C27.2153 22.8466 29.2816 20.4802 32.0146 20.1803C32.4313 20.1136 32.6146 20.2802 32.4978 20.7468Z" fill="#EA4017"></path></g><defs><clipPath id="clip0_2932_2214"><rect width="48.0121" height="24.98" fill="white" transform="translate(0.621094 5.28027)"></rect></clipPath></defs></svg> 