<?xml version="1.0" encoding="UTF-8"?> <svg xmlns="http://www.w3.org/2000/svg" width="154" height="55" viewBox="0 0 154 55" fill="none"><rect x="1.85156" y="15.5156" width="45.0132" height="23.2824" rx="11.6412" fill="#002930"></rect><path fill-rule="evenodd" clip-rule="evenodd" d="M26.2036 52.5166C40.6755 52.5166 52.4073 40.7849 52.4073 26.313C52.4073 11.8411 40.6755 0.109375 26.2036 0.109375C11.7318 0.109375 0 11.8411 0 26.313C0 40.7849 11.7318 52.5166 26.2036 52.5166ZM2.77458 27.1771C2.77458 21.356 7.49355 16.637 13.3147 16.637H35.2209C41.0421 16.637 45.7611 21.356 45.7611 27.1771C45.7611 32.9983 41.0421 37.7172 35.2209 37.7172H13.3147C7.49354 37.7172 2.77458 32.9983 2.77458 27.1771ZM10.1849 23.68C10.5685 23.1563 11.3514 22.9647 11.9335 23.252L18.644 26.5645C19.0414 26.7607 19.2425 27.1295 19.208 27.5104C19.2446 27.8929 19.0435 28.2639 18.6444 28.4609L11.9339 31.7734C11.3518 32.0608 10.569 31.8692 10.1853 31.3455C9.80174 30.8218 9.96266 30.1643 10.5448 29.8769L15.3339 27.5128L10.5443 25.1485C9.96222 24.8612 9.8013 24.2037 10.1849 23.68ZM28.8079 27.5127C28.8079 26.8635 29.3341 26.3372 29.9833 26.3372H37.6343C38.2835 26.3372 38.8097 26.8635 38.8097 27.5127C38.8097 28.1618 38.2835 28.6881 37.6343 28.6881H29.9833C29.3341 28.6881 28.8079 28.1618 28.8079 27.5127Z" fill="#00E0EF"></path><path d="M71.3272 12.2061C72.2138 12.2061 72.8892 12.0055 73.3536 11.6045C73.8391 11.1823 74.0818 10.5491 74.0818 9.70479C74.0818 8.9027 73.8285 8.29057 73.3219 7.86842C72.8364 7.42515 72.1188 7.20352 71.1689 7.20352C70.8312 7.20352 70.5462 7.21408 70.3141 7.23518C70.103 7.23518 69.8813 7.25629 69.6492 7.29851V12.2061H71.3272ZM69.6808 22.3694C69.4486 22.4328 69.0793 22.4961 68.5727 22.5594C68.0872 22.6227 67.6017 22.6544 67.1162 22.6544C66.6308 22.6544 66.198 22.6122 65.8181 22.5278C65.4593 22.4644 65.1532 22.3378 64.8999 22.1478C64.6466 21.9578 64.4567 21.694 64.33 21.3563C64.2034 21.0186 64.14 20.5753 64.14 20.0265V5.11385C64.14 4.67059 64.2561 4.33287 64.4883 4.10068C64.7416 3.84739 65.0793 3.64686 65.5015 3.49911C66.2192 3.24582 67.0318 3.0664 67.9394 2.96086C68.8682 2.83422 69.7969 2.77089 70.7257 2.77089C73.6385 2.77089 75.8654 3.39357 77.4063 4.63893C78.9471 5.88429 79.7176 7.57291 79.7176 9.70479C79.7176 10.7391 79.5487 11.6784 79.211 12.5227C78.8944 13.3459 78.4089 14.0635 77.7545 14.6757C77.1213 15.2667 76.3087 15.7311 75.3166 16.0688C74.3456 16.3854 73.2164 16.5437 71.9288 16.5437H69.6808V22.3694ZM88.0463 18.3801C88.2785 18.4223 88.5634 18.4645 88.9012 18.5067C89.2389 18.5278 89.5555 18.5384 89.851 18.5384C90.5687 18.5384 91.223 18.4329 91.814 18.2218C92.4262 18.0107 92.9433 17.6835 93.3655 17.2403C93.8087 16.797 94.1464 16.2271 94.3786 15.5305C94.6319 14.8129 94.7586 13.958 94.7586 12.9659C94.7586 11.0662 94.3153 9.64147 93.4288 8.69162C92.5423 7.72066 91.3602 7.23518 89.8827 7.23518C89.5872 7.23518 89.2811 7.24574 88.9645 7.26685C88.669 7.28795 88.3629 7.31962 88.0463 7.36183V18.3801ZM89.8194 23.0027C89.4605 23.0027 89.0489 22.9921 88.5846 22.971C88.1202 22.9499 87.6347 22.9077 87.1281 22.8444C86.6426 22.781 86.1466 22.6966 85.64 22.5911C85.1545 22.5066 84.7007 22.38 84.2786 22.2111C83.1176 21.7679 82.5372 20.9974 82.5372 19.8998V5.11385C82.5372 4.67059 82.6533 4.33287 82.8855 4.10068C83.1388 3.84739 83.4765 3.64686 83.8986 3.49911C84.8063 3.2036 85.7667 3.01363 86.7798 2.9292C87.793 2.82366 88.7006 2.77089 89.5027 2.77089C91.1491 2.77089 92.6372 2.97142 93.967 3.37246C95.3179 3.77351 96.4683 4.39619 97.4181 5.2405C98.3891 6.0637 99.1384 7.10854 99.6661 8.375C100.194 9.64147 100.458 11.1401 100.458 12.871C100.458 14.5596 100.204 16.0371 99.6978 17.3036C99.1912 18.5489 98.463 19.6043 97.5131 20.4697C96.5844 21.3141 95.4657 21.9473 94.157 22.3694C92.8483 22.7916 91.4024 23.0027 89.8194 23.0027ZM110.812 12.2061C111.698 12.2061 112.373 12.0055 112.838 11.6045C113.323 11.1823 113.566 10.5491 113.566 9.70479C113.566 8.9027 113.313 8.29057 112.806 7.86842C112.321 7.42515 111.603 7.20352 110.653 7.20352C110.315 7.20352 110.031 7.21408 109.798 7.23518C109.587 7.23518 109.366 7.25629 109.133 7.29851V12.2061H110.812ZM109.165 22.3694C108.933 22.4328 108.564 22.4961 108.057 22.5594C107.571 22.6227 107.086 22.6544 106.601 22.6544C106.115 22.6544 105.682 22.6122 105.302 22.5278C104.944 22.4644 104.637 22.3378 104.384 22.1478C104.131 21.9578 103.941 21.694 103.814 21.3563C103.688 21.0186 103.624 20.5753 103.624 20.0265V5.11385C103.624 4.67059 103.74 4.33287 103.973 4.10068C104.226 3.84739 104.564 3.64686 104.986 3.49911C105.703 3.24582 106.516 3.0664 107.424 2.96086C108.352 2.83422 109.281 2.77089 110.21 2.77089C113.123 2.77089 115.35 3.39357 116.891 4.63893C118.431 5.88429 119.202 7.57291 119.202 9.70479C119.202 10.7391 119.033 11.6784 118.695 12.5227C118.379 13.3459 117.893 14.0635 117.239 14.6757C116.606 15.2667 115.793 15.7311 114.801 16.0688C113.83 16.3854 112.701 16.5437 111.413 16.5437H109.165V22.3694Z" fill="white"></path><path d="M66.74 29.1646C66.9722 29.1224 67.3416 29.0696 67.8482 29.0063C68.3547 28.9219 68.8402 28.8797 69.3046 28.8797C69.7901 28.8797 70.2122 28.9219 70.5711 29.0063C70.951 29.0696 71.2676 29.1963 71.5209 29.3862C71.7742 29.5762 71.9642 29.8401 72.0908 30.1778C72.2175 30.5155 72.2808 30.9588 72.2808 31.5076V43.2224C72.2808 45.101 71.7425 46.5152 70.666 47.465C69.5896 48.3938 68.0065 48.8581 65.9168 48.8581C64.8192 48.8581 63.9327 48.6893 63.2572 48.3516C62.7717 48.1194 62.4129 47.8028 62.1807 47.4017C61.9697 47.0007 61.8641 46.5468 61.8641 46.0403C61.8641 45.6181 61.9169 45.2487 62.0224 44.9321C62.1491 44.6155 62.2968 44.3622 62.4657 44.1722C62.8667 44.2567 63.2045 44.32 63.4789 44.3622C63.7744 44.3833 64.091 44.3939 64.4287 44.3939C65.2519 44.3939 65.8429 44.1933 66.2018 43.7923C66.5606 43.3701 66.74 42.758 66.74 41.9559V29.1646ZM75.8937 33.1856C76.1048 33.1223 76.4319 33.059 76.8752 32.9957C77.3396 32.9323 77.8145 32.9007 78.3 32.9007C78.7643 32.9007 79.1759 32.9323 79.5348 32.9957C79.9147 33.059 80.2313 33.1856 80.4846 33.3756C80.7379 33.5656 80.9279 33.8294 81.0545 34.1671C81.2023 34.4838 81.2762 34.9059 81.2762 35.4336V42.2409C81.2762 43.1063 81.4872 43.729 81.9094 44.1089C82.3315 44.4677 82.9437 44.6472 83.7458 44.6472C84.2312 44.6472 84.6217 44.6049 84.9172 44.5205C85.2339 44.4361 85.4766 44.3516 85.6455 44.2672V33.1856C85.8565 33.1223 86.1837 33.059 86.627 32.9957C87.0913 32.9323 87.5663 32.9007 88.0518 32.9007C88.5161 32.9007 88.9277 32.9323 89.2866 32.9957C89.6665 33.059 89.9831 33.1856 90.2364 33.3756C90.4897 33.5656 90.6797 33.8294 90.8063 34.1671C90.9541 34.4838 91.0279 34.9059 91.0279 35.4336V45.0588C91.0279 46.1141 90.5847 46.9057 89.6982 47.4334C88.9594 47.8977 88.0729 48.246 87.0386 48.4782C86.0254 48.7315 84.9172 48.8581 83.7141 48.8581C82.5743 48.8581 81.5189 48.7315 80.5479 48.4782C79.5981 48.2249 78.7749 47.8344 78.0783 47.3067C77.3818 46.779 76.8435 46.1036 76.4636 45.2804C76.0837 44.4361 75.8937 43.4229 75.8937 42.2409V33.1856ZM104.074 38.5998C104.074 37.9454 103.884 37.4705 103.504 37.175C103.145 36.8584 102.649 36.7001 102.016 36.7001C101.593 36.7001 101.171 36.7528 100.749 36.8584C100.348 36.9639 99.9997 37.1222 99.7042 37.3333V48.3199C99.4931 48.3832 99.1554 48.4465 98.6911 48.5099C98.2478 48.5732 97.7834 48.6049 97.2979 48.6049C96.8336 48.6049 96.4114 48.5732 96.0315 48.5099C95.6726 48.4465 95.3666 48.3199 95.1133 48.1299C94.86 47.94 94.6595 47.6867 94.5117 47.3701C94.3851 47.0323 94.3217 46.5996 94.3217 46.0719V36.5734C94.3217 36.0035 94.4378 35.5392 94.67 35.1803C94.9233 34.8215 95.261 34.4943 95.6832 34.1988C96.4009 33.6922 97.2979 33.2806 98.3744 32.964C99.472 32.6474 100.686 32.4891 102.016 32.4891C104.401 32.4891 106.237 33.0168 107.525 34.0722C108.812 35.1064 109.456 36.5523 109.456 38.4098V48.3199C109.245 48.3832 108.907 48.4465 108.443 48.5099C108 48.5732 107.535 48.6049 107.05 48.6049C106.585 48.6049 106.163 48.5732 105.783 48.5099C105.424 48.4465 105.118 48.3199 104.865 48.1299C104.612 47.94 104.411 47.6867 104.263 47.3701C104.137 47.0323 104.074 46.5996 104.074 46.0719V38.5998ZM112.654 28.6897C112.654 27.8876 112.918 27.2121 113.446 26.6633C113.994 26.1145 114.712 25.8401 115.599 25.8401C116.485 25.8401 117.192 26.1145 117.72 26.6633C118.269 27.2121 118.543 27.8876 118.543 28.6897C118.543 29.4918 118.269 30.1672 117.72 30.716C117.192 31.2648 116.485 31.5392 115.599 31.5392C114.712 31.5392 113.994 31.2648 113.446 30.716C112.918 30.1672 112.654 29.4918 112.654 28.6897ZM118.29 48.3199C118.058 48.3621 117.709 48.4149 117.245 48.4782C116.802 48.5626 116.348 48.6049 115.884 48.6049C115.419 48.6049 114.997 48.5732 114.617 48.5099C114.258 48.4465 113.952 48.3199 113.699 48.1299C113.446 47.94 113.245 47.6867 113.097 47.3701C112.971 47.0323 112.907 46.5996 112.907 46.0719V33.1856C113.14 33.1434 113.477 33.0907 113.921 33.0273C114.385 32.9429 114.849 32.9007 115.314 32.9007C115.778 32.9007 116.19 32.9323 116.548 32.9957C116.928 33.059 117.245 33.1856 117.498 33.3756C117.752 33.5656 117.942 33.8294 118.068 34.1671C118.216 34.4838 118.29 34.9059 118.29 35.4336V48.3199ZM137.642 40.6578C137.642 41.9665 137.442 43.1379 137.041 44.1722C136.64 45.1854 136.07 46.0403 135.331 46.7368C134.613 47.4334 133.748 47.9611 132.735 48.3199C131.722 48.6787 130.592 48.8581 129.347 48.8581C128.102 48.8581 126.972 48.6682 125.959 48.2882C124.946 47.9083 124.07 47.3701 123.331 46.6735C122.614 45.9558 122.054 45.0904 121.653 44.0772C121.252 43.0641 121.052 41.9242 121.052 40.6578C121.052 39.4124 121.252 38.2832 121.653 37.27C122.054 36.2568 122.614 35.402 123.331 34.7054C124.07 33.9877 124.946 33.4389 125.959 33.059C126.972 32.6791 128.102 32.4891 129.347 32.4891C130.592 32.4891 131.722 32.6896 132.735 33.0907C133.748 33.4706 134.613 34.0194 135.331 34.7371C136.07 35.4336 136.64 36.2885 137.041 37.3017C137.442 38.3148 137.642 39.4335 137.642 40.6578ZM126.561 40.6578C126.561 41.9454 126.803 42.9374 127.289 43.634C127.796 44.3094 128.492 44.6472 129.379 44.6472C130.265 44.6472 130.941 44.2989 131.405 43.6023C131.89 42.9058 132.133 41.9242 132.133 40.6578C132.133 39.3913 131.89 38.4204 131.405 37.7449C130.919 37.0484 130.233 36.7001 129.347 36.7001C128.46 36.7001 127.774 37.0484 127.289 37.7449C126.803 38.4204 126.561 39.3913 126.561 40.6578ZM145.651 48.3199C145.44 48.3832 145.102 48.4465 144.638 48.5099C144.194 48.5732 143.73 48.6049 143.244 48.6049C142.78 48.6049 142.358 48.5732 141.978 48.5099C141.619 48.4465 141.313 48.3199 141.06 48.1299C140.806 47.94 140.606 47.6867 140.458 47.3701C140.332 47.0323 140.268 46.5996 140.268 46.0719V36.5734C140.268 36.088 140.353 35.6764 140.522 35.3386C140.711 34.9798 140.975 34.6632 141.313 34.3888C141.651 34.1144 142.062 33.8716 142.548 33.6606C143.054 33.4284 143.593 33.2279 144.163 33.059C144.733 32.8901 145.324 32.7635 145.936 32.6791C146.548 32.5735 147.16 32.5207 147.772 32.5207C148.785 32.5207 149.587 32.7213 150.178 33.1223C150.769 33.5023 151.065 34.1355 151.065 35.022C151.065 35.3175 151.023 35.613 150.938 35.9085C150.854 36.1829 150.748 36.4362 150.622 36.6684C150.178 36.6684 149.724 36.6895 149.26 36.7317C148.796 36.774 148.342 36.8373 147.899 36.9217C147.455 37.0061 147.033 37.1011 146.632 37.2067C146.252 37.2911 145.925 37.3966 145.651 37.5233V48.3199Z" fill="#00E0EF"></path></svg> 