<?xml version="1.0" encoding="UTF-8"?> <svg xmlns="http://www.w3.org/2000/svg" width="154" height="55" viewBox="0 0 154 55" fill="none"><rect x="1.96094" y="15.8477" width="45.0132" height="23.2824" rx="11.6412" fill="#002930"></rect><path fill-rule="evenodd" clip-rule="evenodd" d="M26.313 52.8487C40.7849 52.8487 52.5166 41.1169 52.5166 26.645C52.5166 12.1732 40.7849 0.441406 26.313 0.441406C11.8411 0.441406 0.109375 12.1732 0.109375 26.645C0.109375 41.1169 11.8411 52.8487 26.313 52.8487ZM2.88395 27.5092C2.88395 21.688 7.60293 16.969 13.4241 16.969H35.3303C41.1515 16.969 45.8704 21.688 45.8704 27.5092C45.8704 33.3303 41.1515 38.0493 35.3303 38.0493H13.4241C7.60292 38.0493 2.88395 33.3303 2.88395 27.5092ZM10.2943 24.012C10.6779 23.4883 11.4608 23.2967 12.0429 23.5841L18.7533 26.8966C19.1508 27.0928 19.3519 27.4615 19.3174 27.8424C19.354 28.225 19.1529 28.5959 18.7538 28.793L12.0433 32.1055C11.4612 32.3928 10.6783 32.2012 10.2947 31.6775C9.91112 31.1538 10.072 30.4963 10.6541 30.209L15.4433 27.8449L10.6537 25.4806C10.0716 25.1932 9.91067 24.5357 10.2943 24.012ZM28.9173 27.8447C28.9173 27.1955 29.4435 26.6693 30.0927 26.6693H37.7437C38.3929 26.6693 38.9191 27.1955 38.9191 27.8447C38.9191 28.4939 38.3929 29.0201 37.7437 29.0201H30.0927C29.4435 29.0201 28.9173 28.4939 28.9173 27.8447Z" fill="#00E0EF"></path><path d="M71.4366 12.5381C72.3231 12.5381 72.9986 12.3376 73.4629 11.9365C73.9484 11.5144 74.1912 10.8811 74.1912 10.0368C74.1912 9.23473 73.9379 8.6226 73.4313 8.20045C72.9458 7.75719 72.2281 7.53555 71.2783 7.53555C70.9406 7.53555 70.6556 7.54611 70.4234 7.56722C70.2124 7.56722 69.9907 7.58832 69.7585 7.63054V12.5381H71.4366ZM69.7902 22.7015C69.558 22.7648 69.1886 22.8281 68.682 22.8914C68.1966 22.9548 67.7111 22.9864 67.2256 22.9864C66.7401 22.9864 66.3074 22.9442 65.9275 22.8598C65.5686 22.7965 65.2626 22.6698 65.0093 22.4798C64.756 22.2899 64.566 22.026 64.4394 21.6883C64.3127 21.3506 64.2494 20.9073 64.2494 20.3585V5.44589C64.2494 5.00262 64.3655 4.6649 64.5977 4.43271C64.851 4.17942 65.1887 3.9789 65.6109 3.83114C66.3285 3.57785 67.1412 3.39843 68.0488 3.29289C68.9776 3.16625 69.9063 3.10292 70.835 3.10292C73.7479 3.10292 75.9748 3.7256 77.5156 4.97096C79.0565 6.21632 79.8269 7.90494 79.8269 10.0368C79.8269 11.0711 79.6581 12.0104 79.3204 12.8547C79.0037 13.6779 78.5183 14.3956 77.8639 15.0077C77.2307 15.5987 76.418 16.0631 75.426 16.4008C74.455 16.7174 73.3257 16.8757 72.0382 16.8757H69.7902V22.7015ZM88.1557 18.7121C88.3879 18.7543 88.6728 18.7965 89.0105 18.8388C89.3483 18.8599 89.6649 18.8704 89.9604 18.8704C90.6781 18.8704 91.3324 18.7649 91.9234 18.5538C92.5355 18.3427 93.0527 18.0156 93.4748 17.5723C93.9181 17.129 94.2558 16.5591 94.488 15.8626C94.7413 15.1449 94.8679 14.29 94.8679 13.298C94.8679 11.3983 94.4247 9.9735 93.5382 9.02365C92.6516 8.05269 91.4696 7.56722 89.9921 7.56722C89.6965 7.56722 89.3905 7.57777 89.0739 7.59888C88.7784 7.61998 88.4723 7.65165 88.1557 7.69386V18.7121ZM89.9287 23.3347C89.5699 23.3347 89.1583 23.3242 88.6939 23.303C88.2296 23.2819 87.7441 23.2397 87.2375 23.1764C86.752 23.1131 86.256 23.0286 85.7494 22.9231C85.2639 22.8387 84.8101 22.712 84.3879 22.5432C83.227 22.0999 82.6466 21.3295 82.6466 20.2319V5.44589C82.6466 5.00262 82.7626 4.6649 82.9948 4.43271C83.2481 4.17942 83.5859 3.9789 84.008 3.83114C84.9156 3.53563 85.876 3.34566 86.8892 3.26123C87.9024 3.15569 88.81 3.10292 89.6121 3.10292C91.2585 3.10292 92.7466 3.30345 94.0764 3.7045C95.4273 4.10554 96.5777 4.72822 97.5275 5.57253C98.4985 6.39573 99.2478 7.44057 99.7755 8.70703C100.303 9.9735 100.567 11.4722 100.567 13.203C100.567 14.8916 100.314 16.3692 99.8072 17.6356C99.3006 18.881 98.5724 19.9364 97.6225 20.8018C96.6938 21.6461 95.5751 22.2793 94.2664 22.7015C92.9577 23.1236 91.5118 23.3347 89.9287 23.3347ZM110.921 12.5381C111.807 12.5381 112.483 12.3376 112.947 11.9365C113.433 11.5144 113.675 10.8811 113.675 10.0368C113.675 9.23473 113.422 8.6226 112.916 8.20045C112.43 7.75719 111.712 7.53555 110.763 7.53555C110.425 7.53555 110.14 7.54611 109.908 7.56722C109.697 7.56722 109.475 7.58832 109.243 7.63054V12.5381H110.921ZM109.274 22.7015C109.042 22.7648 108.673 22.8281 108.166 22.8914C107.681 22.9548 107.195 22.9864 106.71 22.9864C106.224 22.9864 105.792 22.9442 105.412 22.8598C105.053 22.7965 104.747 22.6698 104.494 22.4798C104.24 22.2899 104.05 22.026 103.924 21.6883C103.797 21.3506 103.734 20.9073 103.734 20.3585V5.44589C103.734 5.00262 103.85 4.6649 104.082 4.43271C104.335 4.17942 104.673 3.9789 105.095 3.83114C105.813 3.57785 106.625 3.39843 107.533 3.29289C108.462 3.16625 109.391 3.10292 110.319 3.10292C113.232 3.10292 115.459 3.7256 117 4.97096C118.541 6.21632 119.311 7.90494 119.311 10.0368C119.311 11.0711 119.142 12.0104 118.805 12.8547C118.488 13.6779 118.003 14.3956 117.348 15.0077C116.715 15.5987 115.902 16.0631 114.91 16.4008C113.939 16.7174 112.81 16.8757 111.522 16.8757H109.274V22.7015Z" fill="#002930"></path><path d="M66.8494 29.4966C67.0816 29.4544 67.451 29.4017 67.9575 29.3383C68.4641 29.2539 68.9496 29.2117 69.414 29.2117C69.8995 29.2117 70.3216 29.2539 70.6804 29.3383C71.0604 29.4017 71.377 29.5283 71.6303 29.7183C71.8836 29.9082 72.0736 30.1721 72.2002 30.5098C72.3268 30.8475 72.3902 31.2908 72.3902 31.8396V43.5544C72.3902 45.433 71.8519 46.8472 70.7754 47.7971C69.6989 48.7258 68.1158 49.1902 66.0262 49.1902C64.9286 49.1902 64.042 49.0213 63.3666 48.6836C62.8811 48.4514 62.5223 48.1348 62.2901 47.7337C62.079 47.3327 61.9735 46.8789 61.9735 46.3723C61.9735 45.9501 62.0263 45.5808 62.1318 45.2641C62.2584 44.9475 62.4062 44.6942 62.5751 44.5043C62.9761 44.5887 63.3138 44.652 63.5882 44.6942C63.8837 44.7153 64.2004 44.7259 64.5381 44.7259C65.3613 44.7259 65.9523 44.5254 66.3111 44.1243C66.67 43.7022 66.8494 43.09 66.8494 42.2879V29.4966ZM76.0031 33.5177C76.2141 33.4543 76.5413 33.391 76.9846 33.3277C77.4489 33.2644 77.9239 33.2327 78.4093 33.2327C78.8737 33.2327 79.2853 33.2644 79.6441 33.3277C80.0241 33.391 80.3407 33.5177 80.594 33.7076C80.8473 33.8976 81.0373 34.1615 81.1639 34.4992C81.3117 34.8158 81.3855 35.238 81.3855 35.7656V42.5729C81.3855 43.4383 81.5966 44.061 82.0188 44.4409C82.4409 44.7998 83.053 44.9792 83.8551 44.9792C84.3406 44.9792 84.7311 44.937 85.0266 44.8525C85.3432 44.7681 85.586 44.6837 85.7548 44.5992V33.5177C85.9659 33.4543 86.2931 33.391 86.7364 33.3277C87.2007 33.2644 87.6756 33.2327 88.1611 33.2327C88.6255 33.2327 89.0371 33.2644 89.3959 33.3277C89.7759 33.391 90.0925 33.5177 90.3458 33.7076C90.5991 33.8976 90.789 34.1615 90.9157 34.4992C91.0634 34.8158 91.1373 35.238 91.1373 35.7656V45.3908C91.1373 46.4462 90.6941 47.2377 89.8075 47.7654C89.0688 48.2298 88.1822 48.5781 87.148 48.8102C86.1348 49.0635 85.0266 49.1902 83.8235 49.1902C82.6837 49.1902 81.6283 49.0635 80.6573 48.8102C79.7075 48.5569 78.8843 48.1665 78.1877 47.6388C77.4912 47.1111 76.9529 46.4356 76.573 45.6124C76.193 44.7681 76.0031 43.7549 76.0031 42.5729V33.5177ZM104.183 38.9318C104.183 38.2775 103.993 37.8025 103.613 37.507C103.254 37.1904 102.758 37.0321 102.125 37.0321C101.703 37.0321 101.281 37.0849 100.858 37.1904C100.457 37.296 100.109 37.4543 99.8136 37.6653V48.6519C99.6025 48.7153 99.2648 48.7786 98.8004 48.8419C98.3572 48.9052 97.8928 48.9369 97.4073 48.9369C96.9429 48.9369 96.5208 48.9052 96.1408 48.8419C95.782 48.7786 95.476 48.6519 95.2227 48.462C94.9694 48.272 94.7688 48.0187 94.6211 47.7021C94.4944 47.3644 94.4311 46.9316 94.4311 46.404V36.9055C94.4311 36.3356 94.5472 35.8712 94.7794 35.5124C95.0327 35.1535 95.3704 34.8264 95.7926 34.5308C96.5102 34.0243 97.4073 33.6127 98.4838 33.296C99.5814 32.9794 100.795 32.8211 102.125 32.8211C104.51 32.8211 106.346 33.3488 107.634 34.4042C108.922 35.4385 109.565 36.8844 109.565 38.7418V48.6519C109.354 48.7153 109.017 48.7786 108.552 48.8419C108.109 48.9052 107.645 48.9369 107.159 48.9369C106.695 48.9369 106.273 48.9052 105.893 48.8419C105.534 48.7786 105.228 48.6519 104.974 48.462C104.721 48.272 104.521 48.0187 104.373 47.7021C104.246 47.3644 104.183 46.9316 104.183 46.404V38.9318ZM112.763 29.0217C112.763 28.2196 113.027 27.5442 113.555 26.9954C114.104 26.4466 114.821 26.1722 115.708 26.1722C116.595 26.1722 117.302 26.4466 117.829 26.9954C118.378 27.5442 118.653 28.2196 118.653 29.0217C118.653 29.8238 118.378 30.4993 117.829 31.0481C117.302 31.5969 116.595 31.8713 115.708 31.8713C114.821 31.8713 114.104 31.5969 113.555 31.0481C113.027 30.4993 112.763 29.8238 112.763 29.0217ZM118.399 48.6519C118.167 48.6941 117.819 48.7469 117.354 48.8102C116.911 48.8947 116.457 48.9369 115.993 48.9369C115.529 48.9369 115.106 48.9052 114.726 48.8419C114.368 48.7786 114.062 48.6519 113.808 48.462C113.555 48.272 113.354 48.0187 113.207 47.7021C113.08 47.3644 113.017 46.9316 113.017 46.404V33.5177C113.249 33.4755 113.587 33.4227 114.03 33.3594C114.494 33.2749 114.959 33.2327 115.423 33.2327C115.887 33.2327 116.299 33.2644 116.658 33.3277C117.038 33.391 117.354 33.5177 117.608 33.7076C117.861 33.8976 118.051 34.1615 118.178 34.4992C118.325 34.8158 118.399 35.238 118.399 35.7656V48.6519ZM137.752 40.9898C137.752 42.2985 137.551 43.47 137.15 44.5043C136.749 45.5174 136.179 46.3723 135.44 47.0689C134.723 47.7654 133.857 48.2931 132.844 48.6519C131.831 49.0108 130.702 49.1902 129.456 49.1902C128.211 49.1902 127.082 49.0002 126.069 48.6203C125.055 48.2403 124.179 47.7021 123.441 47.0055C122.723 46.2879 122.164 45.4224 121.763 44.4093C121.361 43.3961 121.161 42.2563 121.161 40.9898C121.161 39.7445 121.361 38.6152 121.763 37.602C122.164 36.5888 122.723 35.734 123.441 35.0374C124.179 34.3198 125.055 33.771 126.069 33.391C127.082 33.0111 128.211 32.8211 129.456 32.8211C130.702 32.8211 131.831 33.0216 132.844 33.4227C133.857 33.8026 134.723 34.3514 135.44 35.0691C136.179 35.7656 136.749 36.6205 137.15 37.6337C137.551 38.6469 137.752 39.7656 137.752 40.9898ZM126.67 40.9898C126.67 42.2774 126.913 43.2695 127.398 43.966C127.905 44.6415 128.601 44.9792 129.488 44.9792C130.374 44.9792 131.05 44.6309 131.514 43.9343C132 43.2378 132.243 42.2563 132.243 40.9898C132.243 39.7234 132 38.7524 131.514 38.0769C131.029 37.3804 130.343 37.0321 129.456 37.0321C128.57 37.0321 127.884 37.3804 127.398 38.0769C126.913 38.7524 126.67 39.7234 126.67 40.9898ZM145.76 48.6519C145.549 48.7153 145.211 48.7786 144.747 48.8419C144.304 48.9052 143.839 48.9369 143.354 48.9369C142.889 48.9369 142.467 48.9052 142.087 48.8419C141.728 48.7786 141.422 48.6519 141.169 48.462C140.916 48.272 140.715 48.0187 140.568 47.7021C140.441 47.3644 140.378 46.9316 140.378 46.404V36.9055C140.378 36.42 140.462 36.0084 140.631 35.6707C140.821 35.3118 141.085 34.9952 141.422 34.7208C141.76 34.4464 142.172 34.2037 142.657 33.9926C143.164 33.7604 143.702 33.5599 144.272 33.391C144.842 33.2222 145.433 33.0955 146.045 33.0111C146.657 32.9055 147.269 32.8528 147.881 32.8528C148.895 32.8528 149.697 33.0533 150.288 33.4543C150.879 33.8343 151.174 34.4675 151.174 35.354C151.174 35.6496 151.132 35.9451 151.048 36.2406C150.963 36.515 150.858 36.7683 150.731 37.0004C150.288 37.0004 149.834 37.0216 149.369 37.0638C148.905 37.106 148.451 37.1693 148.008 37.2537C147.565 37.3382 147.143 37.4332 146.742 37.5387C146.362 37.6231 146.034 37.7287 145.76 37.8553V48.6519Z" fill="#00E0EF"></path></svg> 