<?xml version="1.0" encoding="UTF-8"?> <svg xmlns="http://www.w3.org/2000/svg" width="36" height="36" viewBox="0 0 36 36" fill="none"><g clip-path="url(#clip0_2932_2207)"><path d="M23.1795 33.3733V5.51348C23.1795 3.11126 21.8612 1.79297 19.459 1.79297H6.17352C3.75664 1.79297 2.4823 3.11126 2.4823 5.51348V33.3733H4.82593L4.84058 5.54277C4.84058 4.63462 5.28 4.15125 6.21745 4.15125H19.415C20.3232 4.15125 20.8065 4.61997 20.8065 5.54277V33.3733H23.1795ZM0.167969 33.2708C0.167969 33.9299 0.680637 34.4719 1.32513 34.4719H24.3073C24.9518 34.4719 25.4792 33.9299 25.4792 33.2708C25.4792 32.641 24.9518 32.1136 24.3073 32.1136H1.32513C0.695285 32.1136 0.167969 32.6264 0.167969 33.2708ZM8.1363 17.92H17.4962C18.4775 17.92 19.1514 17.3342 19.1514 16.4407V7.56416C19.1514 6.67064 18.4629 6.05545 17.4962 6.05545H8.1363C7.16955 6.05545 6.51041 6.67064 6.51041 7.56416V16.4407C6.51041 17.3342 7.16955 17.92 8.1363 17.92ZM27.3833 11.4311H29.0386L29.0532 8.16471C29.0532 7.71064 28.6724 7.32979 28.2183 7.32979C27.7495 7.32979 27.3833 7.71064 27.3833 8.16471V11.4311ZM32.9055 11.4311V8.16471C32.9055 7.71064 32.5393 7.32979 32.0559 7.32979C31.6166 7.32979 31.2357 7.71064 31.2357 8.16471V11.4311H32.9055ZM22.5057 21.084H23.3259C23.9997 21.084 24.4098 21.4648 24.4098 22.1972V27.0455C24.4098 29.1256 25.6695 30.3852 27.7495 30.3852C29.8296 30.3852 31.0746 29.1256 31.0746 27.0455V19.4727C31.0746 18.0226 32.1586 17.6124 32.8469 17.0852C33.9016 16.2942 34.4582 15.1957 34.4582 13.892V11.6948C34.4582 11.3432 34.2677 11.1382 33.9455 11.1382H26.1382C25.816 11.1382 25.611 11.3432 25.611 11.6948V13.892C25.611 15.1957 26.1822 16.2942 27.2368 17.0852C27.9253 17.6124 29.0092 18.0226 29.0092 19.4727V27.0455C29.0092 27.8365 28.5259 28.32 27.7495 28.32C26.9586 28.32 26.4898 27.8365 26.4898 27.0455V22.1972C26.4898 20.1758 25.2888 19.0186 23.3259 19.0186H22.5057V21.084Z" fill="#EA4017"></path></g><defs><clipPath id="clip0_2932_2207"><rect width="34.2902" height="32.6789" fill="white" transform="translate(0.171875 1.79199)"></rect></clipPath></defs></svg> 