<?xml version="1.0" encoding="UTF-8"?> <svg xmlns="http://www.w3.org/2000/svg" width="49" height="38" viewBox="0 0 49 38" fill="none"><g clip-path="url(#clip0_2932_2240)"><path d="M1.10547 22.4914C1.10547 23.2823 1.74997 23.6193 2.43841 23.1945L7.63833 20.0306C8.29748 19.6205 8.28283 18.8442 7.63833 18.434L2.42376 15.2408C1.73532 14.816 1.10547 15.1822 1.10547 15.9585V22.4914ZM48.5493 22.4914V15.9585C48.5493 15.1822 47.9194 14.8307 47.2163 15.2408L42.0165 18.434C41.3719 18.8588 41.3573 19.6058 42.0165 20.0306L47.2163 23.1945C47.9194 23.6047 48.5493 23.2823 48.5493 22.4914Z" fill="#EA4017"></path><path d="M10.9345 12.399H11.7109C12.2089 12.399 12.5751 12.0328 12.5751 11.5348V5.45601C12.5751 4.95799 12.2089 4.5918 11.7109 4.5918H10.9345C10.4365 4.5918 10.0703 4.95799 10.0703 5.45601V11.5348C10.0703 12.0328 10.4365 12.399 10.9345 12.399ZM10.9345 23.1358H11.7109C12.2089 23.1358 12.5751 22.7696 12.5751 22.2715V16.2074C12.5751 15.7094 12.2089 15.3432 11.7109 15.3432H10.9345C10.4365 15.3432 10.0703 15.7094 10.0703 16.2074V22.2715C10.0703 22.7696 10.4365 23.1358 10.9345 23.1358ZM10.9345 33.8871H11.7109C12.2089 33.8871 12.5751 33.5209 12.5751 33.0375V26.9441C12.5751 26.4461 12.2089 26.0799 11.7109 26.0799H10.9345C10.4365 26.0799 10.0703 26.4461 10.0703 26.9441V33.0375C10.0703 33.5209 10.4365 33.8871 10.9345 33.8871ZM37.9301 12.399H38.7212C39.2192 12.399 39.5854 12.0328 39.5854 11.5348V5.45601C39.5854 4.95799 39.2192 4.5918 38.7212 4.5918H37.9301C37.4468 4.5918 37.0806 4.95799 37.0806 5.45601V11.5348C37.0806 12.0328 37.4468 12.399 37.9301 12.399ZM37.9301 23.1358H38.7212C39.2192 23.1358 39.5854 22.7696 39.5854 22.2715V16.2074C39.5854 15.7094 39.2192 15.3432 38.7212 15.3432H37.9301C37.4468 15.3432 37.0806 15.7094 37.0806 16.2074V22.2715C37.0806 22.7696 37.4468 23.1358 37.9301 23.1358ZM37.9301 33.8871H38.7212C39.2192 33.8871 39.5854 33.5209 39.5854 33.0375V26.9441C39.5854 26.4461 39.2192 26.0799 38.7212 26.0799H37.9301C37.4468 26.0799 37.0806 26.4461 37.0806 26.9441V33.0375C37.0806 33.5209 37.4468 33.8871 37.9301 33.8871ZM24.8058 32.5103C29.9912 32.5103 32.3202 31.3385 32.3202 28.3503V16.559H32.906C33.5652 16.559 34.0925 16.0463 34.0778 15.4164L34.0632 14.9038C34.034 14.2593 33.5652 13.7612 32.8914 13.7612H32.3202V10.8317C32.3202 7.7557 29.4931 5.93938 24.8206 5.95403C20.1772 5.95403 17.3356 7.74105 17.3356 10.8317V13.7612H16.7642C16.0905 13.7612 15.6072 14.2593 15.5924 14.8891L15.5778 15.4164C15.5632 16.0463 16.0905 16.559 16.7496 16.559H17.3356V28.3503C17.3356 31.3385 19.6498 32.5103 24.8058 32.5103ZM24.8206 30.4449C20.9535 30.4303 19.4449 29.8297 19.4449 28.2918V10.8463C19.4449 9.05934 21.3051 8.04864 24.8058 8.04864C28.3506 8.04864 30.2255 9.05934 30.2255 10.8317V28.2918C30.2255 29.8297 28.7021 30.4303 24.8206 30.4449ZM24.8206 17.1155C25.7433 17.1302 27.2959 17.2035 27.794 17.2181C28.585 17.2181 28.9805 16.8812 29.0537 16.0316L29.2148 14.1274C29.3467 12.5894 28.336 12.0035 24.8352 11.9889C21.3344 11.9889 20.2944 12.5894 20.4409 14.1421L20.6167 16.017C20.6899 16.8812 21.0414 17.2181 21.8617 17.2035C22.3743 17.2181 23.8537 17.1302 24.8206 17.1155ZM24.8206 27.9988C28.3066 27.9842 29.4198 27.4715 29.1708 25.8749L29.0391 24.9521C28.8486 23.663 27.8379 23.2676 24.8352 23.2822C21.8177 23.2676 20.807 23.6777 20.6167 24.9521L20.4848 25.8602C20.2212 27.4861 21.349 27.9842 24.8206 27.9988Z" fill="#EA4017"></path></g><defs><clipPath id="clip0_2932_2240"><rect width="47.7183" height="36.2417" fill="white" transform="translate(0.914062 0.952148)"></rect></clipPath></defs></svg> 