<?xml version="1.0" encoding="UTF-8"?> <svg xmlns="http://www.w3.org/2000/svg" width="41" height="42" viewBox="0 0 41 42" fill="none"><g clip-path="url(#clip0_2932_2222)"><path d="M40.7929 19.3138V16.8823C40.1484 17.1899 39.4892 17.5561 38.8007 17.9956L33.4836 21.3352L27.6393 22.053C23.9774 22.4924 21.8241 24.6016 21.8241 27.7362V30.3582C21.8241 32.5846 23.0984 33.8736 25.2809 33.8736H29.3091V31.735H25.3982C24.4607 31.735 23.9626 31.1492 23.9626 30.0945V27.7362C23.9626 25.7734 25.3688 24.4845 27.9029 24.1623L34.2015 23.3859L39.9287 19.8411C40.2216 19.6508 40.5145 19.475 40.7929 19.3138ZM40.7929 33.8736V31.735H35.4758V33.8736H40.7929ZM32.3266 36.891C34.8605 36.891 36.8379 34.899 36.8379 32.3796C36.8379 29.8309 34.8605 27.8535 32.3266 27.8535C29.7924 27.8535 27.815 29.8309 27.815 32.3796C27.815 34.899 29.7924 36.891 32.3266 36.891ZM32.3266 34.7525C30.9789 34.7525 29.9535 33.7125 29.9535 32.3796C29.9535 31.0319 30.9789 29.992 32.3266 29.992C33.6595 29.992 34.6994 31.0319 34.6994 32.3796C34.6994 33.7125 33.6595 34.7525 32.3266 34.7525ZM9.00739 36.891C11.5414 36.891 13.5189 34.899 13.5189 32.3796C13.5189 29.8309 11.5414 27.8535 9.00739 27.8535C6.47334 27.8535 4.4959 29.8309 4.4959 32.3796C4.4959 34.899 6.47334 36.891 9.00739 36.891ZM9.00739 34.7525C7.65981 34.7525 6.63446 33.7125 6.63446 32.3796C6.63446 31.0319 7.65981 29.992 9.00739 29.992C10.355 29.992 11.3803 31.0319 11.3803 32.3796C11.3803 33.7125 10.355 34.7525 9.00739 34.7525ZM0.804688 15.4468V17.5854H2.76747C6.35616 17.5854 9.2564 19.0648 11.7611 22.5364L14.9983 23.3859C16.1994 23.6935 16.5216 24.4113 16.5216 25.4072V30.1971C16.5216 31.1638 16.0383 31.735 15.2033 31.735H11.9369V33.8736H15.5842C17.4884 33.8736 18.6603 32.6872 18.6603 30.7244V25.4072C18.6603 23.5763 18.1035 22.009 15.6428 21.2327L12.933 20.3977C11.2192 18.3617 8.23106 15.4468 2.76747 15.4468H0.804688ZM0.804688 31.735V33.8736H5.88744V31.735H0.804688ZM22.3514 4.62221L21.707 7.30273L18.3819 3.88983C18.1035 3.59687 17.7374 3.80194 17.8692 4.21208L19.0557 7.71287L17.5031 7.02443C17.1515 6.84866 16.8879 7.12697 17.1515 7.47851L18.001 8.59173L14.0169 8.03512C13.5482 7.96189 13.431 8.43061 13.8118 8.66497L17.5616 10.9354L15.3206 11.7556C14.9251 11.9021 14.9837 12.3562 15.4084 12.3855L17.9132 12.5759L14.5002 14.8756C14.1634 15.0952 14.3099 15.608 14.7786 15.4908L19.0996 14.5094L19.1436 18.1713C19.1436 18.5522 19.5245 18.5961 19.6856 18.3324L22.4539 13.7477L27.1266 17.9516C27.4781 18.2592 27.9175 17.937 27.6832 17.5121L24.9148 12.3415L27.7418 11.492C27.9762 11.4187 27.9762 11.0965 27.7418 11.0086L25.2517 9.98327L27.0387 4.90052C27.1558 4.57827 26.819 4.28531 26.5406 4.56362L23.6404 7.31738L22.9227 4.62221C22.8348 4.24138 22.4539 4.24138 22.3514 4.62221Z" fill="#EA4017"></path><path d="M34.6551 40.6125C35.7684 41.7257 37.5847 41.7257 38.6832 40.5833C39.7672 39.47 39.7672 37.7123 38.6686 36.5991L7.76196 5.67782C6.64873 4.54995 4.84708 4.54995 3.73385 5.66317C2.63527 6.7764 2.62062 8.56342 3.7485 9.69129L34.6551 40.6125Z" fill="white"></path><path d="M35.871 39.396C36.3104 39.8499 37.0282 39.8499 37.4676 39.396C37.8924 38.9565 37.9071 38.2534 37.4676 37.7993L6.54638 6.87806C6.0923 6.42398 5.38921 6.43863 4.93514 6.87806C4.51034 7.30283 4.48106 8.02057 4.93514 8.47465L35.871 39.396Z" fill="#EA4017"></path></g><defs><clipPath id="clip0_2932_2222"><rect width="39.9882" height="40.9916" fill="white" transform="translate(0.808594 0.452148)"></rect></clipPath></defs></svg> 