<?xml version="1.0" encoding="UTF-8"?> <svg xmlns="http://www.w3.org/2000/svg" width="52" height="36" viewBox="0 0 52 36" fill="none"><g clip-path="url(#clip0_2932_2183)"><path d="M38.7629 21.2887C39.3049 21.6549 39.9787 21.5231 40.3742 20.9665C42.2491 18.3885 43.3476 14.8438 43.3476 11.2258C43.3476 7.60779 42.2637 4.03375 40.3742 1.48506C39.9787 0.913798 39.3049 0.796617 38.7629 1.16281C38.2355 1.529 38.133 2.21745 38.5725 2.81799C40.1691 5.07374 41.0773 8.1058 41.0773 11.2258C41.0773 14.3457 40.1398 17.3485 38.5725 19.6335C38.1477 20.2341 38.2355 20.9225 38.7629 21.2887Z" fill="#EA4017"></path><path d="M33.3422 17.4652C33.8256 17.8022 34.5287 17.6996 34.9095 17.1284C36.0373 15.649 36.7112 13.4664 36.7112 11.2254C36.7112 8.98427 36.0373 6.8164 34.9095 5.3077C34.5287 4.75109 33.8256 4.63391 33.3422 4.98545C32.7416 5.39558 32.6538 6.12797 33.1079 6.72852C33.9721 7.90034 34.4408 9.52623 34.4408 11.2254C34.4408 12.9245 33.9573 14.5358 33.1079 15.7222C32.6684 16.3374 32.7416 17.0405 33.3422 17.4652Z" fill="#EA4017"></path><path d="M13.3065 31.8649H31.704C34.1355 31.8649 35.2927 31.1324 35.2927 29.5212C35.2927 25.6834 30.4589 20.132 22.5052 20.132C14.5515 20.132 9.70312 25.6834 9.70312 29.5212C9.70312 31.1324 10.8603 31.8649 13.3065 31.8649ZM12.6034 29.653C12.2225 29.653 12.0614 29.5505 12.0614 29.2429C12.0614 26.826 15.7819 22.3439 22.5052 22.3439C29.2285 22.3439 32.9343 26.826 32.9343 29.2429C32.9343 29.5505 32.7879 29.653 32.4071 29.653H12.6034ZM22.5052 18.3011C25.9913 18.3011 28.833 15.2103 28.833 11.4313C28.833 7.68149 26.0207 4.7373 22.5052 4.7373C19.0337 4.7373 16.1774 7.74007 16.1774 11.4606C16.1921 15.2251 19.0337 18.3011 22.5052 18.3011ZM22.5052 16.0893C20.3666 16.0893 18.5357 14.0533 18.5357 11.4606C18.5357 8.91189 20.3373 6.9491 22.5052 6.9491C24.7023 6.9491 26.4748 8.86795 26.4748 11.4313C26.4748 14.0239 24.6731 16.0893 22.5052 16.0893Z" fill="#EA4017"></path></g><defs><clipPath id="clip0_2932_2183"><rect width="33.6458" height="34.7096" fill="white" transform="translate(9.70703 0.952148)"></rect></clipPath></defs></svg> 